<svg id="Capa_1" enable-background="new 0 0 512 512" height="512" viewBox="0 0 512 512" width="512" xmlns="http://www.w3.org/2000/svg"><g><path d="m122.276 222.998-.212.002h-12.42v65.972c4.92-.033 9.904-.077 12.957-.131 11.647-.203 23.399-10.485 23.399-32.997 0-11.826-3.258-21.82-8.938-27.421-3.791-3.736-8.613-5.532-14.786-5.425z"/><path fill-rule="evenodd" clip-rule="evenodd" d="M256 0c204.821 0 256 51.179 256 256 0 204.821-51.179 256-256 256C51.179 512 0 460.821 0 256 0 51.179 51.179 0 256 0zM201.062 73.228l20.877 21.545-32.903 31.884h170.964v30h-245.035zm104.938 119.772v126h-27.574l-42.426-66.45v66.45h-30v-126.003l27.574.006 42.426 66.449v-66.452zm-226.355 126.052v-126.052h42.321c14.139-.16 26.652 4.687 36.158 14.06 11.527 11.365 17.876 28.69 17.876 48.784 0 35.966-22.237 62.458-52.875 62.993-7.919.138-43.48.215-43.48.215zm231.293 119.72-20.877-21.545 32.903-31.884h-170.964v-30h245.035zm115.525-152.942c-8.317 40.387-63.556 42.07-87.919 14.013l22.23-20.146c5.278 5.825 13.63 9.303 22.339 9.303 8.397 0 13.209-5.038 13.816-8.442.716-4.006-5.043-7.651-10.671-9.728-5.813-2.158-11.58-4.438-17.31-6.807-5.438-2.248-11.526-4.158-16.185-7.858-9.353-7.428-14.15-19.159-12.377-31.31 2.009-13.992 12.191-25.376 26.574-29.709 22.168-6.679 42.813 3.924 51.519 11.241l-19.305 22.965.11.091c-.114-.092-11.597-9.204-23.671-5.572-4.12 1.066-7.403 5.251-4.523 8.504 3.764 1.642 14.286 6.154 25.55 10.31 25.959 9.574 32.426 28.565 29.823 43.145z"/></g></svg>
